<svg xmlns="http://www.w3.org/2000/svg" width="27.642" height="32.002" viewBox="0 0 27.642 32.002">
  <g id="butterfly-side-view-with-ornamented-wings" transform="translate(-2.179 0)">
    <g id="Group_5" data-name="Group 5">
      <g id="Group_1" data-name="Group 1">
        <path id="Path_1" data-name="Path 1" d="M28.284,20.215a5.182,5.182,0,0,0-3.46-3.164,6.294,6.294,0,0,0-4.238.414A5.3,5.3,0,0,0,21.817,15l0-.041c.024-1.476-2.162-3.416-4.275-5.292-1.283-1.138-2.736-2.428-2.9-3.021-.058-.2-.12-.448-.189-.719C13.909,3.8,13,.227,10.805,0,8.7-.037,7.6,1.952,7.525,5.91c-.077,4.305,1.08,11.2,3.342,19.977-.085-.047-.165-.088-.233-.124a.833.833,0,0,0-.206-.943.893.893,0,0,0-1.047.231A7.769,7.769,0,0,1,8.2,22.528c-.425-1.261-.869-2.556-1.832-3.055a.466.466,0,0,0-.293-.116.475.475,0,1,0,.433.636,6.037,6.037,0,0,1,1.355,2.649A8.553,8.553,0,0,0,9.028,25.19a27.646,27.646,0,0,0-3.363-.359,6.888,6.888,0,0,1-2.641-.49.441.441,0,0,0,.1-.274.475.475,0,0,0-.949-.018.467.467,0,0,0,.374.463,6.846,6.846,0,0,0,3.092.676,27.806,27.806,0,0,1,3.346.359c-.284.521-.271,1.08.059,1.305a.8.8,0,0,0,.9-.118c.379.407.917,1.007,1.335,1.526.767.953,5.373,3.854,5.956,3.621.224-.092-.243-.754-.969-1.576.2.1.4.195.555.271.234.1,5.745,2.285,8.9,1.049,2.629-.053,4.046-1.586,4.1-4.438A19.953,19.953,0,0,0,28.284,20.215Zm-7.266-5.26s0-.007,0-.01l.323.005ZM8.476,5.927c.008-.475.033-.912.07-1.319a.377.377,0,0,0,.135.013,3.572,3.572,0,0,0,.535-.2,5.374,5.374,0,0,1,.7-.23,1.507,1.507,0,0,1,.354-.051.4.4,0,0,1,.158.03,1.394,1.394,0,0,1,.231.075,1.218,1.218,0,0,1,.664.594,3.6,3.6,0,0,1,.305,1.21q.044.365.09.744c.039.3.1.515.143.781a6.206,6.206,0,0,0,.653,1.591,7.892,7.892,0,0,0,1.028,1.371,15.042,15.042,0,0,0,1.2,1.17c.412.367.824.71,1.219,1.052s.772.674,1.109,1.012a11.528,11.528,0,0,1,.919,1.013,4.7,4.7,0,0,1,.583.965c.034.079.066.156.1.231.016.056.03.108.045.162a4.919,4.919,0,0,0-.112,1.538.435.435,0,0,0-.006.2c.016.069.03.14.044.209a.452.452,0,0,0,.079.158c.006.016.014.031.019.047-.161.2-.327.4-.5.6a30.553,30.553,0,0,0-3.064,3.7,16.4,16.4,0,0,0-2.407,3.732c-.093.188-.167.354-.226.506h0c-.183-.108-.361-.213-.533-.311C9.621,17.406,8.4,10.288,8.476,5.927ZM13.485,27.5a1.94,1.94,0,0,0,.007-.219,2.524,2.524,0,0,1,.178-.658,33.276,33.276,0,0,1,2.149-3.3c.68-.862,1.431-1.759,2.15-2.614.337-.4.652-.777.95-1.137.17-.134.341-.255.512-.371a5.982,5.982,0,0,0,1.972.7c.176.039.328.073.44.106a4.155,4.155,0,0,1,2.988,2.636c.038.116.063.233.095.351a8.893,8.893,0,0,1,.158,1.189,6.669,6.669,0,0,1-3.527,5.66c-.081.045-.173.1-.271.156a8.819,8.819,0,0,1-1.19.6,24.832,24.832,0,0,1-2.887-.894A19.305,19.305,0,0,1,13.485,27.5Z" fill="#4935ff"/>
      </g>
      <g id="Group_2" data-name="Group 2">
        <path id="Path_2" data-name="Path 2" d="M21.514,24.029c.673,2.178-1.545,3.645.318,3.8s3.04-3.678,2.079-4.99A4.672,4.672,0,0,0,19.993,20.9C18.416,21.072,20.841,21.854,21.514,24.029Z" fill="#4935ff"/>
      </g>
      <g id="Group_3" data-name="Group 3">
        <path id="Path_3" data-name="Path 3" d="M12.617,21.289c-.059-1.188-.267-2.228-.267-3.414a38.165,38.165,0,0,0-.534-7.364c-.178-.832-1.41-6.992-2.39-4.988-.55,1.455-.074,3.8.1,4.631.416,2.495.98,4.811,1.277,7.305.3,2.555,1.446,8.625,1.618,8.166A23.385,23.385,0,0,0,12.617,21.289Z" fill="#4935ff"/>
      </g>
      <g id="Group_4" data-name="Group 4">
        <path id="Path_4" data-name="Path 4" d="M20.986,25.479a3.328,3.328,0,0,0-.387-2.048c-.478-.766-1.775-1.491-2.222-.482-.179.6-.042.735.387,2.049S20.643,26.8,20.986,25.479Z" fill="#4935ff"/>
      </g>
    </g>
  </g>
</svg>
