<svg xmlns="http://www.w3.org/2000/svg" width="26" height="26" viewBox="0 0 26 26">
  <g id="Group_9" data-name="Group 9" transform="translate(-1428 -903)">
    <path id="iconmonstr-check-mark-7" d="M12,0A12,12,0,1,0,24,12,12,12,0,0,0,12,0ZM10.75,16.518,6.25,12.2l1.4-1.435L10.724,13.7l6.105-6.218L18.25,8.892Z" transform="translate(1429 904)" fill="#22d6aa" stroke="#fafafa" stroke-width="2"/>
    <g id="iconmonstr-check-mark-1" transform="translate(1431.898 903.357)" fill="#fafafa">
      <path d="M 7.904642581939697 18.00102996826172 L 0.7124806642532349 11.02622318267822 L 3.274991512298584 8.46233081817627 L 7.569371223449707 12.53330612182617 L 7.927061080932617 12.87238597869873 L 8.271251678466797 12.51959609985352 L 17.84023284912109 2.711488246917725 L 20.39851188659668 5.269776344299316 L 7.904642581939697 18.00102996826172 Z" stroke="none"/>
      <path d="M 17.84461975097656 3.422994613647461 L 8.629140853881836 12.86876583099365 L 7.940771102905273 13.57433605194092 L 7.225380897521973 12.89616584777832 L 3.284406661987305 9.160211563110352 L 1.424955368041992 11.02066516876221 L 7.895913124084473 17.29606437683105 L 19.6947078704834 5.273082733154297 L 17.84461975097656 3.422994613647461 M 17.83584213256836 1.999996185302734 L 21.1023006439209 5.26645565032959 L 7.913361549377441 18.70599555969238 L 1.9073486328125e-06 11.03178596496582 L 3.265581130981445 7.764446258544922 L 7.913361549377441 12.17043590545654 L 17.83584213256836 1.999996185302734 Z" stroke="none" fill="#fafafa"/>
    </g>
  </g>
</svg>
