<svg xmlns="http://www.w3.org/2000/svg" width="69.365" height="80.904" viewBox="0 0 69.365 80.904">
  <g id="Group_8" data-name="Group 8" transform="translate(-1662.135 -762.096)">
    <g id="bell_1_" data-name="bell (1)" transform="translate(1659 767.763)">
      <path id="Path_26" data-name="Path 26" d="M166.424,430.107a11.768,11.768,0,0,1-11.756-11.756,2.351,2.351,0,1,1,4.7,0,7.053,7.053,0,0,0,14.107,0,2.351,2.351,0,1,1,4.7,0A11.768,11.768,0,0,1,166.424,430.107Zm0,0" transform="translate(-131.94 -354.87)" fill="#b0b0b0"/>
      <path id="Path_27" data-name="Path 27" d="M78.544,120.428H26.818a5.487,5.487,0,0,1-3.567-9.655,21.01,21.01,0,0,0,7.486-16.088v-8.74a21.944,21.944,0,0,1,43.888,0v8.74a21,21,0,0,0,7.455,16.066,5.484,5.484,0,0,1-3.536,9.677ZM52.681,68.7A17.26,17.26,0,0,0,35.439,85.944v8.74a25.693,25.693,0,0,1-9.122,19.655.782.782,0,0,0-.282.6.793.793,0,0,0,.784.784H78.544a.792.792,0,0,0,.784-.784.772.772,0,0,0-.276-.6,25.7,25.7,0,0,1-9.129-19.662v-8.74A17.26,17.26,0,0,0,52.681,68.7Zm0,0" transform="translate(-18.197 -54.596)" fill="#b0b0b0"/>
      <path id="Path_28" data-name="Path 28" d="M221.019,14.107a2.352,2.352,0,0,1-2.351-2.351v-9.4a2.351,2.351,0,0,1,4.7,0v9.4A2.352,2.352,0,0,1,221.019,14.107Zm0,0" transform="translate(-186.535)" fill="#b0b0b0"/>
    </g>
    <path id="Path_29" data-name="Path 29" d="M295.147,8.908A8.908,8.908,0,1,1,286.24,0,8.908,8.908,0,0,1,295.147,8.908Zm0,0" transform="translate(1436.352 762.096)" fill="#85afff"/>
  </g>
</svg>
